<svg width="24" height="24" viewBox="0 0 24 24" fill="none" xmlns="http://www.w3.org/2000/svg">
<path d="M11.9906 2C12.7946 2 13.4653 2.65177 13.4653 3.45577C13.4653 3.54333 13.4575 3.62909 13.4427 3.71239C16.2661 4.36243 18.3714 6.89144 18.3714 9.91218V11.6704L18.3706 11.8815C18.3649 13.2874 18.3577 15.0808 19.5625 15.6123C20.5503 16.0481 20.5475 17.234 20.5457 17.9804L20.5456 18.0701H3.45453L3.45438 17.9804C3.4526 17.234 3.44976 16.0481 4.43764 15.6123C5.64239 15.0808 5.63515 13.2874 5.62947 11.8815L5.62871 11.6704V9.91218C5.62871 6.89144 7.73402 4.36243 10.5574 3.71239C10.5426 3.62909 10.5348 3.54333 10.5348 3.45577C10.5348 2.65177 11.1866 2 11.9906 2Z" fill="#AFB3BB"/>
<path fill-rule="evenodd" clip-rule="evenodd" d="M8.46759 19.1666C8.86082 20.7519 10.2932 21.9269 12.0001 21.9269C13.707 21.9269 15.1394 20.7519 15.5326 19.1666H8.46759Z" fill="#AFB3BB"/>
</svg>
